<svg xmlns="http://www.w3.org/2000/svg" width="24" height="24" viewBox="0 0 24 24">
    <g fill="none" fill-rule="evenodd">
        <path fill="#001871" d="M1.852 22.125h20.257V7.6H1.852v14.524zM17.194 2.633c-.174-.871-.931-1.529-1.837-1.529a.378.378 0 0 0-.375.382c0 .211.168.382.375.382.62 0 1.125.515 1.125 1.147s-.505 1.146-1.125 1.146a.379.379 0 0 0-.375.383c0 .21.168.382.375.382.905 0 1.663-.658 1.837-1.529h4.915v3.44H1.852v-3.44h6.377a.379.379 0 0 0 .375-.382.378.378 0 0 0-.375-.382h-.68a1.124 1.124 0 0 1 1.055-.765c.621 0 1.126.515 1.126 1.147S9.225 4.16 8.604 4.16a.38.38 0 0 0-.375.383.38.38 0 0 0 .375.382c1.035 0 1.876-.858 1.876-1.911 0-1.054-.841-1.91-1.876-1.91-.905 0-1.663.657-1.837 1.528H1.102V22.89h21.757V2.633h-5.665z"/>
        <path stroke="#001871" stroke-width=".5" d="M1.852 22.125h20.257V7.6H1.852v14.524zM17.194 2.633c-.174-.871-.931-1.529-1.837-1.529a.378.378 0 0 0-.375.382c0 .211.168.382.375.382.62 0 1.125.515 1.125 1.147s-.505 1.146-1.125 1.146a.379.379 0 0 0-.375.383c0 .21.168.382.375.382.905 0 1.663-.658 1.837-1.529h4.915v3.44H1.852v-3.44h6.377a.379.379 0 0 0 .375-.382.378.378 0 0 0-.375-.382h-.68a1.124 1.124 0 0 1 1.055-.765c.621 0 1.126.515 1.126 1.147S9.225 4.16 8.604 4.16a.38.38 0 0 0-.375.383.38.38 0 0 0 .375.382c1.035 0 1.876-.858 1.876-1.911 0-1.054-.841-1.91-1.876-1.91-.905 0-1.663.657-1.837 1.528H1.102V22.89h21.757V2.633h-5.665z"/>
        <path fill="#001871" d="M5.713 12.458a.371.371 0 0 0 .531 0l1.61-1.64v8.632H6.73a.379.379 0 0 0-.375.382c0 .21.167.382.375.382h3a.38.38 0 0 0 .376-.382.379.379 0 0 0-.375-.382H8.605V9.895a.385.385 0 0 0-.233-.353.369.369 0 0 0-.408.082l-2.25 2.293a.388.388 0 0 0 0 .54"/>
        <path stroke="#001871" stroke-width=".5" d="M5.713 12.458a.371.371 0 0 0 .531 0l1.61-1.64v8.632H6.73a.379.379 0 0 0-.375.382c0 .21.167.382.375.382h3a.38.38 0 0 0 .376-.382.379.379 0 0 0-.375-.382H8.605V9.895a.385.385 0 0 0-.233-.353.369.369 0 0 0-.408.082l-2.25 2.293a.388.388 0 0 0 0 .54z"/>
        <path fill="#001871" d="M15.357 14.099c-1.035 0-1.876-.857-1.876-1.911s.841-1.911 1.876-1.911c1.034 0 1.876.857 1.876 1.91 0 1.055-.842 1.912-1.876 1.912m0 5.35c-1.035 0-1.876-.857-1.876-1.91a.379.379 0 0 0-.375-.383.378.378 0 0 0-.375.383c0 1.474 1.178 2.675 2.626 2.675s2.626-1.2 2.626-2.675v-5.351c0-1.475-1.178-2.676-2.626-2.676s-2.626 1.2-2.626 2.676c0 1.474 1.178 2.675 2.626 2.675.734 0 1.399-.31 1.876-.807v3.483c0 1.053-.842 1.91-1.876 1.91"/>
        <path stroke="#001871" stroke-width=".5" d="M15.357 14.099c-1.035 0-1.876-.857-1.876-1.911s.841-1.911 1.876-1.911c1.034 0 1.876.857 1.876 1.91 0 1.055-.842 1.912-1.876 1.912zm0 5.35c-1.035 0-1.876-.857-1.876-1.91a.379.379 0 0 0-.375-.383.378.378 0 0 0-.375.383c0 1.474 1.178 2.675 2.626 2.675s2.626-1.2 2.626-2.675v-5.351c0-1.475-1.178-2.676-2.626-2.676s-2.626 1.2-2.626 2.676c0 1.474 1.178 2.675 2.626 2.675.734 0 1.399-.31 1.876-.807v3.483c0 1.053-.842 1.91-1.876 1.91z"/>
        <path fill="#001871" d="M10.855 1.868c.62 0 1.126.514 1.126 1.147 0 .632-.505 1.146-1.126 1.146a.38.38 0 0 0-.375.382c0 .212.168.383.375.383 1.035 0 1.876-.857 1.876-1.911s-.841-1.911-1.876-1.911a.379.379 0 0 0-.375.382c0 .211.168.382.375.382"/>
        <path stroke="#001871" stroke-width=".5" d="M10.855 1.868c.62 0 1.126.514 1.126 1.147 0 .632-.505 1.146-1.126 1.146a.38.38 0 0 0-.375.382c0 .212.168.383.375.383 1.035 0 1.876-.857 1.876-1.911s-.841-1.911-1.876-1.911a.379.379 0 0 0-.375.382c0 .211.168.382.375.382z"/>
        <path fill="#001871" d="M13.106 1.868c.62 0 1.125.514 1.125 1.147 0 .632-.505 1.146-1.125 1.146a.379.379 0 0 0-.375.382c0 .212.168.383.375.383 1.034 0 1.875-.857 1.875-1.911s-.84-1.911-1.875-1.911a.378.378 0 0 0-.375.382c0 .211.168.382.375.382"/>
        <path stroke="#001871" stroke-width=".5" d="M13.106 1.868c.62 0 1.125.514 1.125 1.147 0 .632-.505 1.146-1.125 1.146a.379.379 0 0 0-.375.382c0 .212.168.383.375.383 1.034 0 1.875-.857 1.875-1.911s-.84-1.911-1.875-1.911a.378.378 0 0 0-.375.382c0 .211.168.382.375.382z"/>
    </g>
</svg>
